<?xml version="1.0" encoding="UTF-8" standalone="no"?>
<svg
   xmlns:dc="http://purl.org/dc/elements/1.1/"
   xmlns:cc="http://creativecommons.org/ns#"
   xmlns:rdf="http://www.w3.org/1999/02/22-rdf-syntax-ns#"
   xmlns:svg="http://www.w3.org/2000/svg"
   xmlns="http://www.w3.org/2000/svg"
   xmlns:sodipodi="http://sodipodi.sourceforge.net/DTD/sodipodi-0.dtd"
   xmlns:inkscape="http://www.inkscape.org/namespaces/inkscape"
   version="1.1"
   id="svg2"
   xml:space="preserve"
   width="262.01334"
   height="77.720001"
   viewBox="0 0 262.01334 77.720001"
   sodipodi:docname="KAUST logo for Digital Media. Colored with white text.eps"><metadata
     id="metadata8"><rdf:RDF><cc:Work
         rdf:about=""><dc:format>image/svg+xml</dc:format><dc:type
           rdf:resource="http://purl.org/dc/dcmitype/StillImage" /></cc:Work></rdf:RDF></metadata><defs
     id="defs6" /><sodipodi:namedview
     pagecolor="#ffffff"
     bordercolor="#666666"
     borderopacity="1"
     objecttolerance="10"
     gridtolerance="10"
     guidetolerance="10"
     inkscape:pageopacity="0"
     inkscape:pageshadow="2"
     inkscape:window-width="640"
     inkscape:window-height="480"
     id="namedview4" /><g
     id="g10"
     inkscape:groupmode="layer"
     inkscape:label="ink_ext_XXXXXX"
     transform="matrix(1.3333333,0,0,-1.3333333,0,77.72)"><g
       id="g12"
       transform="scale(0.1)"><path
         d="m 383.32,246.465 c 8.653,11.933 12.969,27.344 12.969,46.23 0,11.446 -1.582,21.426 -4.297,30.274 -9.785,-9.375 -16.133,-20.957 -16.133,-35.059 0,-11.465 2.403,-26.222 7.461,-41.445"
         style="fill:#f08314;fill-opacity:1;fill-rule:nonzero;stroke:none"
         id="path14" /><path
         d="m 492.605,355.793 c 3.02,-16.613 4.485,-33.449 4.485,-49.758 0,-61.797 -12.039,-106.035 -30.442,-137.637 3.11,-0.293 6.243,-0.566 9.504,-0.566 86.485,0 105.235,80.469 105.235,115.449 0,56.016 -57.254,71.035 -88.782,72.512"
         style="fill:#f08314;fill-opacity:1;fill-rule:nonzero;stroke:none"
         id="path16" /><path
         d="m 405.605,292.695 c 0,-23.457 -6.562,-42.011 -18.691,-55.968 3.32,-8.075 7.371,-16.122 12.246,-23.719 16.953,19.492 25.598,47.508 25.598,84.121 0,15.371 -2.551,29.687 -7.063,42.812 -6.465,-3.027 -12.597,-6.464 -18.047,-10.468 3.665,-10.606 5.957,-22.657 5.957,-36.778"
         style="fill:#f08314;fill-opacity:1;fill-rule:nonzero;stroke:none"
         id="path18" /><path
         d="m 435.605,297.129 c 0,-44.231 -11.992,-73.711 -30.007,-93.223 4.558,-5.84 9.734,-11.191 15.418,-15.976 19.121,23.984 31.757,59.961 31.757,113.664 0,16.414 -2.175,32.859 -6.367,48.562 -6.25,-1.621 -12.5,-3.574 -18.652,-5.918 5.027,-14.453 7.851,-30.175 7.851,-47.109"
         style="fill:#f08314;fill-opacity:1;fill-rule:nonzero;stroke:none"
         id="path20" /><path
         d="m 466.465,301.594 c 0,-57.422 -14.004,-95.852 -34.277,-121.594 5.695,-3.445 11.894,-6.25 18.582,-8.301 18.761,30 30.761,73.106 30.761,134.336 0,8.613 -0.703,27.313 -4.922,49.356 -5.332,-0.43 -11.074,-1.211 -17.117,-2.344 4.571,-16.817 6.973,-34.277 6.973,-51.453"
         style="fill:#f08314;fill-opacity:1;fill-rule:nonzero;stroke:none"
         id="path22" /><path
         d="m 293.574,431.426 c 47.969,0 87.539,-18.223 112.656,-48.613 5.313,7.128 9.629,14.765 13.223,22.324 -22.812,28.574 -57.683,47.695 -105.976,47.695 -25.364,0 -72.356,-6.113 -113.789,-21.836 0.71,-5.039 2.382,-10 4.875,-14.863 29.414,10.586 62.507,15.293 89.011,15.293"
         style="fill:#ecb00e;fill-opacity:1;fill-rule:nonzero;stroke:none"
         id="path24" /><path
         d="m 432.258,468.047 c -3.352,43.426 -26.281,114.863 -106.086,114.863 -61.719,0 -98.887,-58.254 -115.938,-102.441 46.993,14.726 95.235,20.633 123.282,20.633 41.843,0 74.14,-12.813 98.742,-33.055"
         style="fill:#ecb00e;fill-opacity:1;fill-rule:nonzero;stroke:none"
         id="path26" /><path
         d="m 224.609,391.836 c 14.524,3.332 30.996,5.137 49.141,5.137 26.965,0 78.262,-4.785 108.293,-37.442 6.324,4.18 12.012,9.102 16.98,14.551 -23.125,29.004 -60.222,46.516 -105.449,46.516 -24.797,0 -55.73,-4.211 -83.203,-13.606 3.945,-5.273 8.711,-10.351 14.238,-15.156"
         style="fill:#ecb00e;fill-opacity:1;fill-rule:nonzero;stroke:none"
         id="path28" /><path
         d="m 373.379,354.551 c -28.027,28.828 -74.832,33.144 -99.629,33.144 -14.512,0 -27.754,-1.23 -39.746,-3.429 30.605,-22.567 74.512,-38.028 102.949,-38.028 13.926,0 25.985,3.157 36.426,8.313"
         style="fill:#ecb00e;fill-opacity:1;fill-rule:nonzero;stroke:none"
         id="path30" /><path
         d="m 313.477,466.492 c 49.765,0 86.582,-19.285 111.66,-47.898 4.101,11.379 6.355,21.738 7.187,29.082 -21.855,22.168 -53.281,37.871 -98.808,37.871 -28.118,0 -80.801,-6.777 -129.532,-23.574 -1.765,-6.094 -3.007,-11.446 -3.808,-16.004 40.234,14.519 84.394,20.523 113.301,20.523"
         style="fill:#ecb00e;fill-opacity:1;fill-rule:nonzero;stroke:none"
         id="path32" /><path
         d="m 105.449,346.035 c 0,36.074 23.028,62.422 54.641,81.231 -4.629,3.047 -9.524,5.507 -14.504,7.214 -29.746,-19.382 -50.4883,-45.066 -50.4883,-78.464 0,-29.688 10.9573,-67.903 30.7033,-105.411 3.281,0.254 6.426,0.879 9.375,1.836 -18.977,33.262 -29.727,67.305 -29.727,93.594"
         style="fill:#c1d115;fill-opacity:1;fill-rule:nonzero;stroke:none"
         id="path34" /><path
         d="m 131.211,336.055 c 0,31.211 20.144,53.543 47.969,68.769 -2.332,4.922 -4.981,9.375 -8.184,12.989 -29.805,-16.543 -51.914,-39.766 -51.914,-71.778 0,-24.609 10.039,-56.457 27.773,-87.578 2.918,2.148 5.665,4.531 8.133,7.336 -15.183,25.027 -23.777,50.477 -23.777,70.262"
         style="fill:#c1d115;fill-opacity:1;fill-rule:nonzero;stroke:none"
         id="path36" /><path
         d="m 124.824,438.75 c -3.984,0.359 -7.746,0.508 -11.113,0.508 C 77.5,439.258 0,409.355 0,354.219 0,295.098 65.6953,258.574 108.477,251.504 c -18.6411,37.43 -28.9536,74.961 -28.9536,104.512 0,34.589 18.2188,61.757 45.3006,82.734"
         style="fill:#c1d115;fill-opacity:1;fill-rule:nonzero;stroke:none"
         id="path38" /><path
         d="m 155.781,326.094 c 0,20.742 10.84,37.89 30,50.156 -0.429,6.914 -1.379,13.125 -2.949,18.613 -23.867,-13.418 -40.762,-32.578 -40.762,-58.808 0,-17.364 7.012,-39.434 19.707,-61.426 2.461,3.809 4.629,7.988 6.661,12.305 -8.125,14.14 -12.657,27.91 -12.657,39.16"
         style="fill:#c1d115;fill-opacity:1;fill-rule:nonzero;stroke:none"
         id="path40" /><path
         d="m 165.098,326.094 c 0,-8.321 2.785,-18.223 7.761,-28.535 9.446,25.507 12.661,54.355 13.274,67.714 -13.504,-10.234 -21.035,-23.535 -21.035,-39.179"
         style="fill:#c1d115;fill-opacity:1;fill-rule:nonzero;stroke:none"
         id="path42" /><path
         d="m 303.516,207.051 c -42.832,0 -79.278,18.789 -105.274,42.851 -4.844,-1.933 -9.59,-4.082 -14.297,-6.425 29.922,-34.942 73.965,-63.536 126.465,-63.536 25.352,0 46.465,4.524 63.43,13.301 -3.402,9.258 -7.942,17.305 -13.36,24.317 -15.304,-6.797 -34.164,-10.508 -56.964,-10.508"
         style="fill:#3caaaa;fill-opacity:1;fill-rule:nonzero;stroke:none"
         id="path44" /><path
         d="m 133.945,208.379 c -18.3,-18.242 -30.156,-39.16 -30.156,-59.668 0,-80.1563 124.844,-125.3321 173.164,-125.3321 57.266,0 84.063,36.2891 95.664,74.7852 -17.304,-4.336 -34.14,-5.7618 -48.762,-5.7618 -79.929,0 -146.55,52.9887 -189.91,115.9767"
         style="fill:#3caaaa;fill-opacity:1;fill-rule:nonzero;stroke:none"
         id="path46" /><path
         d="m 257.527,262.539 c -16.082,0 -33.152,-3.379 -49.832,-9.121 24.16,-20.977 57.207,-37.09 95.821,-37.09 20.273,0 36.922,3.059 50.586,8.613 -30.247,31.407 -77.942,37.598 -96.575,37.598"
         style="fill:#3caaaa;fill-opacity:1;fill-rule:nonzero;stroke:none"
         id="path48" /><path
         d="m 310.41,169.102 c -56.621,0 -103.984,31.367 -135.82,69.433 -3.652,-2.031 -7.246,-4.082 -10.75,-6.347 35.203,-47.852 88.894,-88.008 153.348,-88.008 20.839,0 42.988,3.242 63.242,12.343 -0.157,9.59 -1.348,18.282 -3.313,26.243 -20.828,-10.246 -44.578,-13.664 -66.707,-13.664"
         style="fill:#3caaaa;fill-opacity:1;fill-rule:nonzero;stroke:none"
         id="path50" /><path
         d="m 317.188,130.508 c -69.024,0 -126.543,43.055 -164.141,94.277 -2.774,-2.051 -5.332,-4.23 -7.93,-6.406 40.574,-59.805 103.34,-110.43 178.738,-110.43 17.317,0 35.391,2.09 52.942,7.364 1.777,9.14 2.832,18.066 3.34,26.437 -21.953,-8.664 -44.512,-11.242 -62.949,-11.242"
         style="fill:#3caaaa;fill-opacity:1;fill-rule:nonzero;stroke:none"
         id="path52" /><path
         d="m 1203.57,538.445 c 9.74,3.801 16.53,4.18 26,1.086 l 7.79,9.571 c -18.63,0.253 -24.63,8.984 -20.31,15.164 4.22,6.015 11.73,1.73 17.36,-2.118 l 7.82,9.571 c -9.71,6.562 -19.73,7.363 -29.03,-4.25 -3.2,-4.071 -5.09,-12.684 0.46,-17.801 -5.79,-1.348 -10.89,-5.059 -13.52,-7.551 z m 722.35,-79.441 h -14.55 v 13.23 h 14.55 z M 1616,554.969 h -14.57 v 13.254 H 1616 Z m 22.16,0 h -14.53 v 13.254 h 14.53 z m -634.7,-96.004 h -14.515 v 13.262 h 14.515 z m 931.19,62.773 c -8.32,14.617 -18.2,25.223 -36.99,25.223 l -0.98,-5.418 c 29.54,-5.098 15.08,-23.691 40.08,-43.711 h -81.1 v 80.184 h -14.76 v -71.434 c 0,-13.176 5.9,-20.371 14.76,-20.371 h 109.16 v 11.621 c -14.82,4.324 -21.85,9.316 -30.17,23.906 z m -849.83,-23.906 c -18.22,0 -25,13.027 -25.41,26.367 -0.43,15.301 14.74,20.332 37.66,13.692 l 1.62,4.355 c -8.34,3.223 -16.8,6.719 -25.66,6.719 -20.43,0 -30.12,-10.078 -30.12,-26.445 0,-11.309 4.08,-19.602 11.61,-24.688 h -32.27 c -10.16,0 -15.61,6.258 -15.61,16.406 v 14.668 h -14.726 v -31.074 h -32.539 c -10.145,0 -15.605,6.258 -15.605,16.406 v 34.141 H 929.023 V 497.832 H 902.41 c -7.351,0 -6.629,4.344 -3.777,8.379 l -3.953,2.676 c -9.348,-10 -7.563,-22.676 9.207,-22.676 h 39.883 v 11.621 c 2.707,-7.402 9.355,-11.621 17.636,-11.621 h 45.234 v 11.621 c 2.7,-7.402 9.38,-11.621 17.64,-11.621 h 77.94 v 11.621 z m 703.99,52.324 c -27.17,0 -31.19,-30.48 -40.35,-45.461 -2.56,-4.218 -4.79,-6.863 -11.68,-6.863 h -29.88 c 8.9,8.379 20.69,29.207 11.72,39.356 -8.21,9.238 -22.7,9.187 -32.45,10.097 l -15.25,-22.461 c 14.18,-6.621 19.24,-14.121 23.75,-26.992 h -49.52 v 5.977 c 0,24.238 -15.59,44.277 -37.45,27.976 -15.02,-11.191 -24.73,-32.39 -11.22,-42.254 3.14,-2.304 6.53,-3.32 13.62,-3.32 h 73.67 c 7.07,0 11.5,1.113 14.37,4.082 2.61,-2.852 7.35,-4.082 14.48,-4.082 h 29.84 c 6.22,0 9.74,1.074 12.9,3.633 2.75,2.226 6.14,8.738 7.55,14.062 -1.41,-11.992 21.15,-16.347 34.41,-17.695 11.82,-1.211 12.5,6.57 12.5,11.621 l 0.09,16.406 c 0,18.633 -4.03,35.918 -21.1,35.918 z m -159.75,-52.265 c -2.48,0 -7.38,-0.059 -9.26,-0.059 -21.75,0 -19.13,21.055 -6.93,30.508 10.77,8.387 16.4,-5.09 16.4,-22.598 z m 57.75,26.863 7.2,10.539 c 20.19,-1.945 16.99,-18.555 7.3,-29.141 -2.02,7.539 -8.7,15.977 -14.5,18.602 z m 108.23,-25.359 c -13.81,1.804 -23.38,5.789 -29.45,12.558 1.73,5.332 2.75,9.188 4.61,14.707 3.39,9.903 7.66,19.18 16.03,16.992 6.09,-1.593 8.81,-10.136 8.81,-20.129 z M 711.516,497.898 c -2.532,0 -7.446,-0.066 -9.289,-0.066 -21.719,0 -19.141,21.055 -6.946,30.469 10.754,8.418 16.407,-5.059 16.407,-22.551 z m 54.89,-11.687 v 11.621 c 2.715,-7.402 9.414,-11.621 17.657,-11.621 h 37.148 v 91.785 h -14.746 v -80.164 h -24.402 c -10.168,0 -15.657,6.258 -15.657,16.406 v 63.758 h -14.687 v -80.164 h -24.18 v 5.977 c 0,24.207 -15.605,44.296 -37.422,27.949 -15,-11.153 -24.719,-32.344 -11.238,-42.219 3.152,-2.312 6.512,-3.328 13.621,-3.328 z m 79.512,91.785 V 474.434 c 8.848,0 14.746,7.226 14.746,20.379 v 83.183 z m 574.232,-54.473 v -24.109 c -13.78,1.797 -23.38,5.742 -29.43,12.539 1.66,5.332 2.74,9.18 4.61,14.668 3.38,9.922 7.6,19.219 16,16.992 6.12,-1.535 8.82,-10.129 8.82,-20.09 z m -133.47,-25.691 c 2.69,-7.402 9.36,-11.621 17.6,-11.621 h 37.18 v 11.621 c 2.66,-7.402 9.38,-11.621 17.62,-11.621 h 8.48 c 6.21,0 9.71,1.094 12.89,3.641 2.75,2.187 6.12,8.73 7.54,14.074 -1.42,-11.992 21.14,-16.379 34.41,-17.715 11.92,-1.211 12.56,6.582 12.56,11.621 2.66,-7.402 9.38,-11.621 17.6,-11.621 h 36.67 v 91.785 h -14.77 v -80.164 h -23.82 c -10.16,0 -15.64,6.258 -15.64,16.406 0,18.633 -4.04,35.918 -21.11,35.918 -27.14,0 -31.18,-30.488 -40.35,-45.461 -2.54,-4.199 -4.73,-6.863 -11.68,-6.863 h -4.77 c -10.18,0 -15.63,6.258 -15.63,16.406 v 63.758 h -14.77 v -80.164 h -24.43 c -10.09,0 -15.58,6.258 -15.58,16.406 v 63.758 h -14.75 v -80.164 h -73.63 c -21.73,0 -18.21,17.52 -7.67,29.629 l -3.75,3.523 c -16.18,-13.289 -25.4,-31.57 -11.9,-41.445 3.13,-2.312 6.47,-3.328 13.55,-3.328 h 98.15 z m 227.22,80.164 V 474.434 c 8.89,0 14.77,7.226 14.77,20.379 v 83.183 h -14.77"
         style="fill:#ffffff;fill-opacity:1;fill-rule:nonzero;stroke:none"
         id="path54" /><path
         d="M 1039.79,433.137 V 329.551 c 8.84,0 14.74,7.246 14.74,20.39 v 83.196 z m 210.26,-27.766 c 17.06,0 21.08,-17.207 21.08,-35.918 l -0.05,-16.426 c 0,-5.019 -1.55,-16.211 -12.54,-11.64 -13.09,5.488 -31.55,15.398 -39.75,10.019 -5.39,-3.633 -4.67,-9.121 -4.67,-20.859 v -28.008 c 0,-13.125 -5.92,-20.351 -14.78,-20.351 v 56.738 c 0,13.32 4.89,19.621 11.05,23.719 0.29,0.207 0.63,0.363 0.92,0.578 7.83,15.832 13.79,42.148 38.74,42.148 z m 6.26,-50.754 v 24.133 c 0,9.961 -2.74,18.535 -8.85,20.117 -8.42,2.188 -12.65,-7.109 -15.98,-17.004 -1.71,-4.812 -3.94,-12.117 -5.62,-17.39 9.37,-1.485 20.55,-5.762 30.45,-9.856 z M 758.328,313.953 H 743.75 v 13.235 h 14.578 z m 22.16,0 h -14.57 v 13.235 h 14.57 z m 167.571,82.922 h -14.524 v 13.242 h 14.524 z m 22.195,0 h -14.57 v 13.242 h 14.57 z M 874.57,410.117 H 860 v 13.242 h 14.57 z m 22.149,0 h -14.531 v 13.242 h 14.531 z m -198.328,0 h -14.582 v 13.242 h 14.582 z m 126.675,-13.242 h -14.539 v 13.242 h 14.539 z m -104.531,13.242 h -14.519 v 13.242 h 14.519 z m -9.051,-57.07 c -2.461,0 -7.414,-0.078 -9.238,-0.078 -21.777,0 -19.148,21.054 -6.965,30.469 10.782,8.386 16.418,-5.09 16.418,-22.547 z m 161.289,30.644 c 15.274,9.122 19.473,-21.457 19.473,-30.644 -19.773,10.715 -27.891,25.594 -19.473,30.644 z M 727.566,352.969 v 5.976 c 0,24.207 -15.593,44.309 -37.5,27.969 -14.949,-11.191 -24.668,-32.344 -11.199,-42.246 3.125,-2.305 6.516,-3.34 13.613,-3.34 h 77.071 v 11.641 c 2.734,-7.383 9.375,-11.641 17.637,-11.641 h 37.878 v 11.641 c 2.707,-7.383 9.375,-11.641 17.629,-11.641 h 47.696 c 11.504,0 12.539,6.61 12.539,11.641 2.675,-7.383 9.383,-11.641 17.617,-11.641 h 38.613 v 11.641 c 2.695,-7.383 9.348,-11.641 17.61,-11.641 h 36.57 v 91.809 h -14.707 v -80.168 h -23.828 c -10.196,0 -15.645,6.269 -15.645,16.426 v 14.687 h -14.746 v -31.113 h -25.84 c -10.136,0 -14.687,7.871 -15.84,15.742 -1.671,11.152 -6.679,28.73 -22.644,28.73 -9.133,0 -22.617,-5.898 -19.485,-21.093 2.11,-10.41 11.407,-18.164 19.485,-23.379 h -39.387 c -10.183,0 -15.637,6.269 -15.637,16.426 v 14.687 h -14.734 v -31.113 h -25.156 c -10.149,0 -15.625,6.269 -15.625,16.426 v 14.687 h -14.727 v -31.113 z m 401.904,5.976 c 0.26,24.102 -15.6,44.309 -37.44,27.969 -14.96,-11.152 -24.68,-32.344 -11.23,-42.246 3.18,-2.305 6.52,-3.34 13.62,-3.34 h 17.53 c -3.35,-19.219 -7.79,-37.051 -33.96,-49.57 l 1.43,-4.356 c 22.28,6.629 43.04,17.129 48.47,53.926 0.9,6.309 1.54,12.012 1.58,17.617 z m -16.06,-5.898 c -2.47,0 -7.43,-0.078 -9.25,-0.078 -21.75,0 -19.16,21.054 -6.93,30.469 10.78,8.386 16.4,-5.09 16.4,-22.547 z m 446.02,80.09 v -80.168 h -24.38 c -10.17,0 -15.66,6.281 -15.66,16.406 v 63.762 h -14.72 v -80.168 h -39.32 c 8.91,8.379 20.74,29.187 11.69,39.394 -8.14,9.2 -22.66,9.16 -32.39,10.067 l -15.26,-22.508 c 14.18,-6.563 19.24,-14.043 23.79,-26.953 h -49.56 c -10.16,0 -15.61,6.281 -15.61,16.406 v 63.762 h -14.73 v -80.168 h -24.18 v 5.996 c 0,24.199 -15.61,44.277 -37.42,27.949 -15,-11.191 -24.72,-32.344 -11.24,-42.246 3.17,-2.305 6.5,-3.34 13.59,-3.34 h 17.53 c -3.34,-19.219 -7.77,-37.051 -33.98,-49.531 l 1.45,-4.414 c 22.3,6.648 43.13,16.191 48.49,53.945 h 40.49 v 11.641 c 2.67,-7.383 9.35,-11.641 17.62,-11.641 h 36.58 c 7.11,0 11.54,1.113 14.41,4.082 2.64,-2.832 7.34,-4.082 14.47,-4.082 h 48.3 v 13.809 c 0.04,-4.688 2.17,-8.184 5.3,-10.469 3.09,-2.305 6.48,-3.34 13.58,-3.34 h 35.91 v 91.809 z m -114.15,-53.254 7.18,10.547 c 20.19,-1.953 16.97,-18.535 7.33,-29.141 -2.02,7.539 -8.7,15.957 -14.51,18.594 z m -112.2,-26.817 c -2.49,0 -7.45,-0.097 -9.29,-0.097 -21.76,0 -19.14,21.015 -6.93,30.488 10.8,8.367 16.36,-5.098 16.36,-22.566 l -0.14,-7.825"
         style="fill:#ffffff;fill-opacity:1;fill-rule:nonzero;stroke:none"
         id="path56" /><path
         d="m 672.461,238.379 h 12.461 v -34.578 h 0.195 l 25.684,34.578 h 12.539 l -27.539,-35.703 30.586,-42.52 h -14.824 l -26.446,37.949 h -0.195 V 160.156 H 672.461 Z M 1933.16,208.242 h -9.4 v 5.879 h 9.4 v 5.039 c 0,10 2.37,20.488 20.49,20.488 4.68,0 8.78,-0.683 11.47,-1.269 v -7.805 c -2.35,1.008 -5.43,2.473 -10.06,2.473 -9.3,0 -10.41,-6.68 -10.41,-12.461 v -6.465 h 15.27 v -5.879 h -15.27 v -48.086 h -11.49 z m -41.63,-44.609 c 10.27,0 11.5,13.613 11.5,23.457 0,9.883 -1.23,23.515 -11.5,23.515 -10.03,0 -11.32,-13.632 -11.32,-23.515 0,-9.844 1.29,-23.457 11.32,-23.457 z m -23.76,23.457 c 0,18.262 7.93,28.242 23.76,28.242 15.89,0 23.91,-9.98 23.91,-28.242 0,-18.262 -8.02,-28.242 -23.91,-28.242 -15.83,0 -23.76,9.98 -23.76,28.242 z m -55.68,-27.539 -20.72,54.59 h 11.93 l 14.11,-38.575 h 0.25 l 12.69,38.575 h 10.8 l -27.79,-78.203 h -9.22 z m -24.91,0.176 c -2.28,-0.625 -5.33,-0.86 -7.96,-0.86 -10.76,0 -16.95,3.328 -16.95,13.711 v 35.664 h -8.64 v 5.879 h 8.64 v 12.676 l 11.37,6.933 v -19.609 h 14.82 v -5.879 h -14.82 v -31.113 c 0,-7.891 0.83,-11.738 8.21,-11.738 1.8,0 3.75,0.214 5.33,0.859 z m -58.08,54.375 h 11.45 v -53.946 h -11.45 z m -0.45,24.277 h 12.33 v -11.348 h -12.33 z m -15.47,-34.902 c -3.75,2.558 -8.15,5.273 -13.6,5.273 -3.62,0 -7.63,-1.562 -7.63,-5.645 0,-9.746 24.67,-10.644 24.67,-27.851 0,-11.621 -9.06,-16.406 -20.49,-16.406 -6.95,0 -11.7,1.543 -14.43,2.402 v 10.547 c 3.29,-2.246 8.67,-5.625 14.96,-5.625 6.58,0 9.34,3.379 9.34,6.816 0,9.473 -24.35,11.367 -24.35,26.817 0,8.156 5.33,15.527 18.84,15.527 5.83,0 10.84,-1.562 12.69,-2.148 z m -67.79,10.644 h 11.43 v -13.73 h 0.25 c 3.65,7.226 7.66,14.199 17.52,14.941 v -11.836 c -11.02,-0.391 -17.77,-4.121 -17.77,-18.633 v -24.668 h -11.43 z m -24.68,-15.652 c 0,4.207 -1.47,12.136 -9.97,12.136 -8.81,0 -10.53,-9.089 -10.74,-12.136 z m 10.23,-36.504 c -4.78,-1.887 -8.94,-3.098 -15.8,-3.098 -14.93,0 -26.94,8.867 -26.94,30.625 0,14.981 6.03,25.86 22.99,25.86 17.48,0 20.76,-11.68 20.76,-22.11 h -32.33 c 0,-10.605 4.8,-28.379 20.95,-28.379 3.55,0 6.99,0.742 10.37,2.344 z M 1533,214.121 h 12.14 l 13.9,-38.508 h 0.27 l 12.68,38.508 h 10.57 l -19.1,-53.926 h -9.94 z m -21.79,-0.019 h 11.47 v -53.946 h -11.47 z m -0.42,24.277 h 12.36 v -11.348 h -12.36 z m -61.92,-24.258 h 11.46 v -12.773 h 0.28 c 1.73,3.867 7,13.984 18.86,13.984 9.58,0 13.66,-7.91 13.66,-15.703 v -39.434 h -11.46 v 33.711 c 0,6.836 -1.05,12.949 -6.85,12.949 -11.31,0 -14.49,-17.695 -14.49,-24.394 v -22.266 h -11.46 z m -17.33,-26.191 c 0,-14.317 -2.4,-29.063 -26.48,-29.063 -24.16,0 -26.57,14.746 -26.57,29.063 v 50.449 h 12.49 V 187.93 c 0,-12.481 0.91,-22.278 14.08,-22.278 13.15,0 14.02,9.797 14.02,22.278 v 50.449 h 12.46 z m -146.93,50.449 h 11.43 v -37.051 h 0.23 c 1.8,3.887 7.03,14.024 18.96,14.024 9.48,0 13.58,-7.911 13.58,-15.723 v -39.473 h -11.45 v 33.739 c 0,6.867 -0.99,12.941 -6.81,12.941 -11.35,0 -14.51,-17.637 -14.51,-24.356 v -22.324 h -11.43 z m -28.85,-52.93 c -4.72,-0.312 -17.67,-1.386 -17.67,-11.347 0,-4.883 2.83,-8.067 6.58,-8.067 3.94,0 11.09,3.887 11.09,13.035 z m 0,-17.773 h -0.25 c -1.76,-3.242 -6.52,-8.809 -15.18,-8.809 -8.49,0 -14.71,5.996 -14.71,13.516 0,16.711 22.99,17.422 30.14,17.773 v 4.793 c 0,5.871 0,15.656 -7.56,15.656 -7.07,0 -8.3,-5.449 -8.73,-11.835 h -12.03 c 0.58,8.066 3.74,16.582 20.76,16.582 17.54,0 19.03,-9.852 19.03,-20.403 v -34.793 h -11.47 z m -56.33,70.703 h 11.49 v -78.223 h -11.49 z m -30.27,0 h 11.46 v -78.223 h -11.46 z m -29.71,-65.391 h -0.17 c -1.86,-3.984 -6.95,-14.121 -18.87,-14.121 -9.51,0 -13.57,7.969 -13.57,15.821 v 39.414 h 11.42 v -33.789 c 0,-6.739 1.07,-12.95 6.82,-12.95 11.27,0 14.52,17.774 14.52,24.434 v 22.305 h 11.44 v -53.946 h -11.59 z m -72.74,-6.816 c 9.38,0 10.71,12.031 10.71,20.918 0,9.433 -0.88,21.66 -10.71,21.66 -8.97,0 -10.91,-12.227 -10.91,-21.66 0,-8.887 1.7,-20.918 10.91,-20.918 z m 11.19,2.832 h -0.23 c -1.58,-3.613 -5.34,-10.137 -14.06,-10.137 -15.48,0 -20.29,12.754 -20.29,28.223 0,16.23 6.04,28.242 20.29,28.242 9.18,0 12.48,-5.801 14.06,-8.711 h 0.23 v 31.797 h 11.48 v -78.223 h -11.48 z m -68.43,-5.371 c 9.26,0 11.55,12.285 11.55,23.281 0,9.492 -2.17,21.836 -11.55,21.836 -8.97,0 -11.111,-11.621 -11.111,-21.836 0,-13.652 1.671,-23.144 11.111,-23.281 z m -11.579,42.988 h 0.207 c 2.402,3.399 6.062,8.711 15.042,8.711 14.57,0 20.34,-12.227 20.34,-28.418 0,-19.922 -9.77,-28.066 -24.01,-28.066 -21.091,0 -23.025,14.14 -23.025,28.066 v 51.504 h 11.446 z M 932.703,190.859 H 955 l -10.937,36.258 h -0.254 z m 5.559,47.52 h 12.898 l 26.195,-78.184 h -12.89 l -7.16,23.243 h -26.973 l -7.117,-23.243 h -11.047 z m -91.133,-71.66 c 9.961,0 10.918,11.484 10.918,20.371 0,8.984 -1.406,20.996 -10.918,20.996 -9.199,0 -10.918,-11.66 -10.918,-20.352 0,-9.199 1.836,-21.015 10.918,-21.015 z m 22.644,-5 c 0,-15.137 -4.968,-27.051 -26.597,-27.051 -6.965,0 -11.438,1.113 -15.531,2.148 v 11.25 c 3.605,-2.226 9.96,-6.613 17.316,-6.613 12.031,0 13.391,8.371 13.391,20.266 v 5.957 h -0.266 c -1.555,-2.617 -4.746,-7.52 -14.004,-7.52 -14.277,0 -20.293,11.641 -20.293,27.578 0,15.254 4.727,27.61 20.293,27.61 8.809,0 12.559,-6.449 14.004,-10.11 h 0.266 v 8.907 h 11.421 z M 765.84,214.121 h 11.473 v -12.773 h 0.187 c 1.836,3.867 7.078,13.984 18.945,13.984 9.512,0 13.621,-7.91 13.621,-15.703 v -39.434 h -11.48 v 33.711 c 0,6.836 -0.996,12.949 -6.809,12.949 -11.308,0 -14.464,-17.695 -14.464,-24.394 V 160.195 H 765.84 Z m -29.668,-0.019 h 11.406 v -53.946 h -11.406 z m -0.449,24.277 h 12.304 v -11.348 h -12.304 v 11.348"
         style="fill:#ffffff;fill-opacity:1;fill-rule:nonzero;stroke:none"
         id="path58" /><path
         d="m 716.113,92.1289 c -2.871,1.582 -10.918,5.3125 -19.425,5.3125 -6.915,0 -11.786,-3.9062 -11.786,-9.8437 0,-16.4649 36.868,-16.0352 36.868,-40.4883 0,-16.4453 -12.688,-22.8516 -28.43,-22.8516 -8.867,0 -17.481,1.9922 -19.91,2.9297 v 12.0703 c 3.562,-1.9726 12.605,-6.7969 21.804,-6.7969 8.184,0 14.082,3.3399 14.082,11.25 0,17.9297 -36.855,16.7774 -36.855,41.1524 0,12.6562 9.414,20.0387 25.566,20.0387 7.278,0 15.008,-1.464 18.086,-2.011 z m 1046.517,-67.207 -20.72,54.5508 h 11.92 l 14.12,-38.5743 h 0.27 l 12.64,38.5743 h 10.78 L 1763.93,1.19141 h -9.16 z m -52.81,7.1289 c 9.92,0 10.85,11.4453 10.85,20.4101 0,8.9063 -1.29,20.9766 -10.85,20.9766 -9.21,0 -10.93,-11.6797 -10.93,-20.3906 0,-9.1992 1.86,-20.9961 10.93,-20.9961 z m 22.64,-4.9805 C 1732.46,11.8945 1727.52,0 1705.86,0 c -6.97,0 -11.45,1.13281 -15.54,2.12891 V 13.3594 c 3.64,-2.168 9.95,-6.56252 17.35,-6.56252 12,0 13.35,8.39842 13.35,20.27342 v 5.8594 h -0.18 c -1.57,-2.5586 -4.75,-7.4805 -14.1,-7.4805 -14.25,0 -20.22,11.6992 -20.22,27.5977 0,15.2734 4.71,27.6367 20.22,27.6367 8.87,0 12.64,-6.4844 14.1,-10.1172 h 0.18 v 8.9063 h 11.44 z m -79.75,1.875 c 10.2,0 11.48,13.6524 11.48,23.4961 0,9.9219 -1.28,23.4961 -11.48,23.4961 -10.07,0 -11.38,-13.5742 -11.38,-23.4961 0,-9.8437 1.31,-23.4961 11.38,-23.4961 z m -23.76,23.4961 c 0,18.2422 7.94,28.2617 23.76,28.2617 15.87,0 23.93,-10.0195 23.93,-28.2617 0,-18.2812 -8.06,-28.1641 -23.93,-28.1641 -15.82,0 -23.76,9.8829 -23.76,28.1641 z m -25.87,51.2306 h 11.43 V 25.4492 h -11.43 z m -38.27,-74.7267 c 10.23,0 11.44,13.6524 11.44,23.4961 0,9.9219 -1.21,23.4961 -11.44,23.4961 -10.1,0 -11.35,-13.5742 -11.35,-23.4961 0,-9.8437 1.25,-23.4961 11.35,-23.4961 z m -23.74,23.4961 c 0,18.2422 7.87,28.2617 23.74,28.2617 15.89,0 23.96,-10.0195 23.96,-28.2617 0,-18.2812 -8.07,-28.1641 -23.96,-28.1641 -15.87,0 -23.74,9.8829 -23.74,28.1641 z m -57.98,27.0313 h 11.5 V 66.6406 h 0.21 c 1.81,3.9258 7,14.0625 18.97,14.0625 9.47,0 13.57,-7.9883 13.57,-15.8203 V 25.4492 h -11.46 v 33.7891 c 0,6.8164 -1.02,12.9492 -6.79,12.9492 -11.37,0 -14.5,-17.6953 -14.5,-24.3555 V 25.4492 h -11.5 z m -61.71,24.1993 h 11.42 V 66.6406 h 0.23 c 1.83,3.9258 7.03,14.043 18.94,14.043 9.49,0 13.62,-8.0078 13.62,-15.8008 V 25.4492 h -11.47 v 33.7891 c 0,6.8164 -1.01,12.9492 -6.78,12.9492 -11.36,0 -14.54,-17.6953 -14.54,-24.375 V 25.4492 h -11.42 z m -11.59,-76.7189 c -4.61,-1.6992 -9.51,-2.6953 -14.42,-2.6953 -17.09,0 -27.08,10.2539 -27.08,30.3516 0,16.1133 7.37,26.0742 22.9,26.0742 14.55,0 19.41,-7.7148 19.41,-18.8086 h -12.02 c 0,6.4453 -0.64,14.0234 -7.82,14.0234 -6.59,0 -10,-7.6953 -10,-17.4218 0,-13.1836 5.58,-28.2422 19.41,-28.2422 3.27,0 6.43,0.8203 9.62,2.0117 z m -62.25,36.8555 c 0,4.1797 -1.45,12.0898 -9.92,12.0898 -8.87,0 -10.57,-9.0234 -10.78,-12.0898 z m 10.21,-36.5039 c -4.74,-1.9141 -8.96,-3.0274 -15.76,-3.0274 -14.94,0 -26.93,8.7891 -26.93,30.5665 0,14.9023 6,25.8593 23.01,25.8593 17.44,0 20.76,-11.7187 20.76,-22.1484 h -32.31 c 0,-10.6055 4.69,-28.3594 20.92,-28.3594 3.48,0 6.94,0.7031 10.31,2.3242 z m -75.02,68.9258 h -18.98 v 7.4415 h 50.35 v -7.4415 h -18.89 V 25.4492 h -12.48 z m -83,-64.7461 c 9.43,0 10.76,12.0117 10.76,20.957 0,9.3945 -0.88,21.6797 -10.76,21.6797 -8.93,0 -10.9,-12.2852 -10.9,-21.6797 0,-8.9453 1.7,-20.957 10.9,-20.957 z m 11.19,2.8125 h -0.2 c -1.56,-3.5938 -5.31,-10.0196 -14.08,-10.0196 -15.5,0 -20.25,12.6368 -20.25,28.1641 0,16.2305 6.01,28.2617 20.25,28.2617 9.22,0 12.52,-5.8008 14.08,-8.75 h 0.2 v 31.7189 h 11.47 V 25.4883 h -11.47 z m -92.52,45.1758 h 11.4 V 66.6406 h 0.31 c 1.77,3.9258 7,14.0625 18.97,14.0625 9.49,0 13.58,-7.9883 13.58,-15.8203 V 25.4492 h -11.51 v 33.7891 c 0,6.8164 -0.97,12.9492 -6.75,12.9492 -11.35,0 -14.6,-17.6953 -14.6,-24.3555 V 25.4492 h -11.4 z m -28.83,-28.7305 c -4.75,-0.3516 -17.68,-1.3477 -17.68,-11.3086 0,-4.9609 2.9,-8.0664 6.63,-8.0664 3.95,0 11.05,3.8672 11.05,13.0078 z m 0,-17.8125 h -0.23 c -1.78,-3.1641 -6.53,-8.6524 -15.16,-8.6524 -8.5,0 -14.74,5.918 -14.74,13.418 0,16.6992 23.03,17.5586 30.13,17.8125 v 4.7461 c 0,5.918 0,15.6836 -7.58,15.6836 -7.03,0 -8.25,-5.4883 -8.73,-11.875 h -11.99 c 0.57,8.125 3.74,16.6406 20.72,16.6406 17.58,0 19.05,-9.8437 19.05,-20.4492 V 25.4883 h -11.47 z m -83.65,30.8789 c 0,4.1797 -1.47,12.0898 -9.904,12.0898 -8.848,0 -10.586,-9.0234 -10.801,-12.0898 z m 10.21,-36.5039 c -4.76,-1.9141 -8.92,-3.0274 -15.78,-3.0274 -14.92,0 -26.952,8.7891 -26.952,30.5665 0,14.9023 6.036,25.8593 23.028,25.8593 17.444,0 20.764,-11.7187 20.764,-22.1484 h -32.335 c 0,-10.6055 4.793,-28.3594 20.985,-28.3594 3.51,0 6.89,0.7031 10.29,2.3242 z m -50.31,-0.3516 c -4.648,-1.6992 -9.55,-2.6953 -14.433,-2.6953 -17.071,0 -27.071,10.2539 -27.071,30.3516 0,16.1133 7.364,26.0742 22.911,26.0742 14.543,0 19.336,-7.7148 19.336,-18.8086 h -11.934 c 0,6.4453 -0.703,14.0234 -7.871,14.0234 -6.524,0 -10,-7.6953 -10,-17.4218 0,-13.1836 5.566,-28.2422 19.453,-28.2422 3.262,0 6.434,0.8203 9.609,2.0117 z m -99.316,52.5196 h 11.484 V 66.6406 h 0.215 c 1.758,3.9258 6.992,14.0625 18.938,14.0625 9.519,0 13.589,-7.9883 13.589,-15.8203 V 25.4492 h -11.484 v 33.7891 c 0,6.8164 -1.023,12.9492 -6.766,12.9492 -11.347,0 -14.492,-17.6953 -14.492,-24.3555 V 25.4492 h -11.484 z m -24.68,-15.6641 c 0,4.1797 -1.511,12.0898 -9.949,12.0898 -8.887,0 -10.566,-9.0234 -10.781,-12.0898 z M 852.07,27.3047 c -4.843,-1.9141 -9.004,-3.0274 -15.84,-3.0274 -14.921,0 -26.933,8.7891 -26.933,30.5665 0,14.9023 6.016,25.8593 22.969,25.8593 17.461,0 20.754,-11.7187 20.754,-22.1484 h -32.29 c 0,-10.6055 4.75,-28.3594 20.981,-28.3594 3.465,0 6.863,0.7031 10.359,2.3242 z m -68.496,52.168 h 11.438 V 25.4492 h -11.438 z m -0.469,24.1993 h 12.364 V 92.3438 h -12.364 z m -11.71,-76.7189 c -4.598,-1.6992 -9.493,-2.6953 -14.415,-2.6953 -17.078,0 -27.07,10.2539 -27.07,30.3516 0,16.1133 7.356,26.0742 22.91,26.0742 14.485,0 19.399,-7.7148 19.399,-18.8086 h -12.016 c 0,6.4453 -0.691,14.0234 -7.84,14.0234 -6.562,0 -9.961,-7.6953 -9.961,-17.4218 0,-13.1836 5.547,-28.2422 19.383,-28.2422 3.281,0 6.438,0.8203 9.61,2.0117 v -5.293"
         style="fill:#ffffff;fill-opacity:1;fill-rule:nonzero;stroke:none"
         id="path60" /></g></g></svg>
