<?xml version="1.0" standalone="no"?>
<!DOCTYPE svg PUBLIC "-//W3C//DTD SVG 20010904//EN"
 "http://www.w3.org/TR/2001/REC-SVG-20010904/DTD/svg10.dtd">
<svg version="1.0" xmlns="http://www.w3.org/2000/svg"
 width="2177.000000pt" height="824.000000pt" viewBox="0 0 2177.000000 824.000000"
 preserveAspectRatio="xMidYMid meet">

<g transform="translate(0.000000,824.000000) scale(0.100000,-0.100000)"
fill="#000000" stroke="none">
<path d="M3235 7346 c-11 -8 -51 -32 -90 -55 -38 -23 -77 -46 -85 -51 -8 -5
-45 -27 -82 -48 -37 -22 -64 -43 -60 -47 4 -5 2 -6 -3 -2 -14 8 -78 -21 -71
-32 4 -5 1 -13 -5 -17 -8 -4 -9 -3 -5 4 4 7 2 12 -3 12 -6 0 -11 -7 -11 -16 0
-8 -4 -13 -9 -9 -5 3 -16 -2 -24 -10 -9 -8 -20 -15 -24 -15 -5 0 -28 -14 -51
-32 -29 -23 -38 -34 -29 -40 7 -5 1 -6 -14 -2 -15 3 -30 1 -34 -5 -3 -6 -11
-9 -16 -5 -5 3 -9 2 -8 -3 1 -4 0 -11 -1 -15 -1 -5 -3 -14 -4 -20 -1 -8 -15
-12 -36 -11 -28 1 -31 0 -17 -9 14 -7 16 -13 6 -24 -6 -7 -16 -11 -21 -8 -5 3
-16 -3 -24 -15 -9 -12 -26 -21 -40 -21 -23 0 -24 -2 -13 -22 11 -21 11 -22 -5
-9 -13 11 -19 12 -29 2 -9 -10 -8 -11 6 -6 9 4 17 3 17 -1 -1 -11 -57 -74 -67
-75 -5 0 -21 -19 -38 -41 -16 -23 -39 -46 -49 -52 -24 -14 -56 -44 -56 -52 0
-4 -8 -14 -18 -23 -9 -9 -23 -27 -30 -41 -7 -14 -30 -44 -52 -67 -22 -24 -37
-43 -33 -43 3 0 -9 -14 -26 -32 -17 -17 -31 -35 -31 -39 0 -4 -6 -14 -13 -21
-7 -7 -39 -53 -72 -103 -33 -49 -63 -91 -67 -93 -4 -2 -16 -22 -26 -45 -11
-23 -30 -53 -44 -67 -14 -14 -28 -36 -31 -50 -3 -14 -22 -51 -42 -84 -19 -32
-35 -62 -35 -67 0 -10 -8 -27 -33 -74 -39 -72 -87 -181 -87 -197 0 -6 -6 -19
-13 -27 -14 -16 -71 -166 -80 -211 -3 -14 -22 -71 -41 -128 -20 -57 -36 -112
-36 -122 0 -10 -4 -21 -9 -24 -4 -3 -11 -24 -15 -46 -8 -50 -6 -42 -18 -92
-11 -49 -12 -51 -32 -173 -9 -49 -18 -99 -20 -110 -9 -46 -19 -152 -17 -172 1
-12 -3 -31 -9 -42 -7 -14 -11 -131 -11 -349 0 -308 4 -416 19 -452 3 -8 6 -24
8 -35 1 -11 8 -58 15 -104 9 -60 9 -88 2 -100 -9 -14 -8 -18 3 -18 7 0 10 5 7
10 -3 6 -1 7 5 3 7 -4 12 -20 12 -35 0 -15 5 -32 12 -39 9 -9 8 -12 -4 -12 -8
0 -22 -8 -29 -17 -13 -16 -12 -17 4 -4 14 11 21 11 29 3 9 -9 8 -12 -5 -12 -9
0 -17 -4 -17 -10 0 -5 4 -10 9 -10 5 0 12 -10 16 -22 10 -36 27 -68 34 -63 4
2 8 -6 8 -17 1 -11 35 -82 75 -157 71 -131 158 -318 158 -338 0 -12 36 -94 85
-198 19 -38 38 -81 44 -95 6 -14 15 -32 20 -40 6 -8 17 -30 25 -47 33 -67 51
-100 98 -172 81 -124 170 -241 180 -235 5 3 8 2 7 -3 -4 -20 2 -27 12 -13 9
13 10 12 5 -3 -4 -12 14 -39 59 -88 36 -39 65 -74 65 -78 0 -12 47 -60 54 -55
3 2 4 1 1 -2 -6 -9 14 -44 26 -44 6 0 22 -13 36 -30 13 -16 29 -30 34 -30 5 0
20 -9 32 -20 43 -40 100 -80 113 -80 8 0 14 -4 14 -9 0 -9 118 -88 140 -93 8
-2 26 -13 40 -26 13 -12 31 -22 38 -22 8 0 26 -8 40 -19 37 -26 167 -84 277
-124 171 -61 251 -84 310 -89 17 -2 32 -6 35 -9 3 -3 70 -15 150 -27 152 -24
412 -36 462 -22 15 5 26 5 24 1 -3 -4 11 -7 29 -7 19 1 35 4 35 7 0 3 11 4 25
1 14 -2 47 5 74 17 27 11 109 32 183 45 301 55 593 166 818 311 105 68 123 82
218 170 67 62 232 262 232 281 0 19 72 70 229 161 83 48 164 95 179 103 85 46
162 92 162 96 0 3 -61 110 -134 238 -74 128 -138 245 -142 260 -3 14 -10 26
-15 26 -5 0 -9 22 -9 48 0 48 -26 251 -36 284 -3 9 -7 26 -9 39 -22 111 -148
393 -223 496 -20 28 -69 84 -107 123 -39 39 -69 76 -67 81 1 6 -2 8 -7 4 -6
-3 -19 3 -31 15 -11 11 -23 20 -26 20 -13 0 -103 63 -99 69 2 4 -4 8 -13 8 -9
1 -60 20 -113 42 -107 45 -233 71 -346 71 l-74 0 28 24 27 24 -89 -5 c-50 -2
-103 -8 -119 -13 -16 -6 -40 -10 -53 -10 -14 0 -37 -6 -51 -13 -50 -25 -97
-45 -132 -56 -39 -12 -168 -98 -222 -147 -35 -32 -117 -127 -131 -150 -4 -8
-4 -14 0 -14 4 0 4 -4 -2 -8 -10 -7 -45 -66 -45 -76 0 -3 13 3 29 12 16 9 32
14 36 11 9 -9 -20 -70 -30 -62 -4 5 -5 3 -2 -3 3 -6 -2 -44 -12 -85 -22 -92
-25 -163 -10 -254 6 -38 11 -78 12 -87 1 -9 4 -15 7 -13 3 2 12 -16 18 -41 7
-25 26 -60 42 -77 16 -18 30 -35 30 -40 0 -4 11 -5 24 -1 15 3 29 -1 41 -13
10 -10 20 -17 22 -15 2 2 23 -5 46 -16 80 -38 111 -43 167 -30 19 4 30 19 23
31 -3 5 -26 18 -52 29 -58 24 -79 43 -98 88 -59 136 -57 295 5 415 26 52 108
134 163 164 229 123 525 101 734 -55 57 -43 141 -137 167 -188 l18 -35 -47
-27 c-27 -15 -100 -57 -163 -94 -63 -37 -274 -158 -468 -270 -195 -112 -356
-208 -358 -215 -3 -6 129 -243 292 -526 164 -282 299 -524 302 -536 3 -19 -12
-29 -123 -82 -70 -34 -130 -59 -133 -56 -3 2 -10 1 -16 -4 -28 -22 -195 -72
-356 -107 -106 -23 -237 -34 -409 -34 -162 0 -223 4 -346 25 -365 59 -681 195
-965 414 -109 85 -271 242 -335 325 -27 36 -55 65 -62 66 -6 0 -24 20 -40 45
-15 25 -31 45 -35 45 -5 0 -8 7 -8 15 0 8 -3 15 -8 15 -4 0 -23 28 -41 61 -30
55 -32 63 -17 71 9 5 14 13 11 19 -3 5 0 7 7 4 7 -3 27 4 43 15 25 17 27 20
10 20 -16 0 -17 2 -5 10 12 7 10 9 -7 7 -12 0 -20 -4 -17 -8 2 -4 0 -10 -6
-14 -6 -4 -8 -11 -5 -16 3 -5 -1 -6 -10 -3 -11 5 -13 10 -5 19 8 10 8 15 -1
21 -8 5 -9 3 -4 -6 6 -9 4 -11 -4 -6 -7 5 -10 14 -7 22 3 8 1 14 -5 14 -5 0
-14 10 -19 22 -6 13 -14 30 -20 38 -5 8 -19 38 -31 65 -11 28 -27 62 -35 77
-8 14 -14 36 -14 49 0 12 -6 30 -14 38 -16 18 -76 164 -76 186 0 8 -11 39 -25
69 -14 30 -25 60 -25 65 0 6 -4 19 -9 29 -22 40 -85 339 -110 520 -36 254 -33
696 5 962 3 19 7 51 10 70 3 19 7 46 10 60 3 14 6 34 8 45 20 124 32 181 39
186 5 4 15 31 22 60 8 30 21 81 29 114 8 33 24 83 34 110 11 28 37 95 57 150
41 107 70 175 118 270 17 33 35 69 40 80 6 11 14 27 19 35 4 8 24 46 43 84 19
38 42 77 50 86 8 9 15 20 15 24 0 4 16 29 36 54 19 26 50 70 67 97 41 65 119
165 129 165 5 0 8 5 8 10 0 12 86 117 139 171 20 20 68 70 107 110 39 41 98
97 130 124 32 28 77 69 101 93 23 23 47 42 53 42 6 0 23 12 38 28 15 15 56 48
92 74 36 26 76 55 90 66 14 10 41 27 60 38 19 10 39 25 43 32 4 6 14 12 21 12
22 0 73 44 68 60 -9 31 -105 190 -114 190 -5 0 -6 5 -3 10 8 13 5 12 -20 -4z
m-518 -341 c0 -8 -4 -15 -9 -15 -10 0 -11 14 -1 23 9 10 10 9 10 -8z"/>
<path d="M3360 7116 c0 -2 8 -10 18 -17 15 -13 16 -12 3 4 -13 16 -21 21 -21
13z"/>
<path d="M3360 7074 c0 -8 5 -12 10 -9 6 4 8 11 5 16 -9 14 -15 11 -15 -7z"/>
<path d="M3393 7067 c0 -8 6 -14 14 -14 9 0 10 4 2 14 -6 7 -12 13 -14 13 -1
0 -2 -6 -2 -13z"/>
<path d="M3440 6989 c0 -5 5 -7 10 -4 6 3 10 8 10 11 0 2 -4 4 -10 4 -5 0 -10
-5 -10 -11z"/>
<path d="M2582 6958 c-17 -17 -15 -28 6 -27 11 0 12 2 4 6 -10 4 -10 8 -1 19
14 17 8 19 -9 2z"/>
<path d="M3451 6954 c0 -11 3 -14 6 -6 3 7 2 16 -1 19 -3 4 -6 -2 -5 -13z"/>
<path d="M3474 6939 c-3 -6 -2 -15 3 -20 5 -5 9 -1 9 11 0 23 -2 24 -12 9z"/>
<path d="M2490 6905 c-11 -13 -10 -14 4 -9 9 3 16 10 16 15 0 13 -6 11 -20 -6z"/>
<path d="M2540 6899 c0 -5 5 -7 10 -4 6 3 10 8 10 11 0 2 -4 4 -10 4 -5 0 -10
-5 -10 -11z"/>
<path d="M2455 6881 c-6 -11 13 -26 22 -17 4 3 1 6 -6 6 -7 0 -9 5 -6 10 3 6
4 10 1 10 -3 0 -7 -4 -11 -9z"/>
<path d="M2366 6812 c-3 -5 1 -9 9 -9 8 0 12 4 9 9 -3 4 -7 8 -9 8 -2 0 -6 -4
-9 -8z"/>
<path d="M3526 6773 c-6 -14 -5 -15 5 -6 7 7 10 15 7 18 -3 3 -9 -2 -12 -12z"/>
<path d="M2300 6750 c-13 -8 -12 -10 3 -10 9 0 17 5 17 10 0 12 -1 12 -20 0z"/>
<path d="M3531 6737 c-13 -21 -12 -21 5 -5 10 10 16 20 13 22 -3 3 -11 -5 -18
-17z"/>
<path d="M2140 6700 c0 -5 7 -7 15 -4 8 4 15 8 15 10 0 2 -7 4 -15 4 -8 0 -15
-4 -15 -10z"/>
<path d="M3601 6705 c0 -5 6 -18 13 -28 12 -16 14 -16 20 -2 3 9 2 13 -3 10
-6 -3 -14 3 -20 12 -6 10 -10 14 -10 8z"/>
<path d="M2107 6679 c7 -7 15 -10 18 -7 3 3 -2 9 -12 12 -14 6 -15 5 -6 -5z"/>
<path d="M2175 6670 c3 -5 8 -10 11 -10 2 0 4 5 4 10 0 6 -5 10 -11 10 -5 0
-7 -4 -4 -10z"/>
<path d="M3646 6637 c3 -10 9 -15 12 -12 3 3 0 11 -7 18 -10 9 -11 8 -5 -6z"/>
<path d="M1996 6604 c-5 -14 -4 -15 9 -4 17 14 19 20 6 20 -5 0 -12 -7 -15
-16z"/>
<path d="M2056 6592 c-3 -5 1 -9 9 -9 8 0 12 4 9 9 -3 4 -7 8 -9 8 -2 0 -6 -4
-9 -8z"/>
<path d="M1994 6574 c-19 -15 -19 -15 1 -5 13 6 26 6 40 -1 18 -10 19 -10 6 5
-17 21 -22 21 -47 1z"/>
<path d="M1937 6569 c7 -7 15 -10 18 -7 3 3 -2 9 -12 12 -14 6 -15 5 -6 -5z"/>
<path d="M1887 6543 c-11 -11 -8 -21 9 -27 13 -5 14 -4 6 7 -7 8 -9 17 -5 20
3 4 4 7 1 7 -2 0 -8 -3 -11 -7z"/>
<path d="M3689 6513 c-13 -16 -12 -17 4 -4 14 11 20 11 35 0 15 -13 16 -12 3
4 -7 9 -17 17 -21 17 -4 0 -14 -8 -21 -17z"/>
<path d="M1796 6497 c3 -10 9 -15 12 -12 3 3 0 11 -7 18 -10 9 -11 8 -5 -6z"/>
<path d="M1845 6490 c3 -5 8 -10 11 -10 2 0 4 5 4 10 0 6 -5 10 -11 10 -5 0
-7 -4 -4 -10z"/>
<path d="M3696 6492 c-2 -4 4 -8 14 -8 10 0 16 4 14 8 -3 4 -9 8 -14 8 -5 0
-11 -4 -14 -8z"/>
<path d="M1730 6456 c14 -18 13 -19 -5 -12 -16 6 -18 5 -7 -5 8 -9 15 -10 22
-3 8 8 5 15 -7 25 -17 13 -17 13 -3 -5z"/>
<path d="M3760 6441 c0 -6 4 -13 10 -16 6 -3 7 1 4 9 -7 18 -14 21 -14 7z"/>
<path d="M1655 6420 c6 -10 4 -12 -8 -7 -9 3 -18 3 -21 -1 -3 -4 4 -8 14 -9
23 -2 35 13 19 23 -8 5 -9 3 -4 -6z"/>
<path d="M3804 6356 c0 -13 4 -22 8 -20 3 2 16 -8 28 -23 11 -16 17 -19 12 -8
-6 11 -12 25 -14 30 -1 6 -6 9 -10 8 -8 -3 -12 12 -9 30 0 4 -3 7 -8 7 -5 0
-8 -11 -7 -24z"/>
<path d="M1572 6361 c2 -7 -3 -16 -11 -19 -9 -3 -11 0 -6 8 6 9 4 11 -5 5 -10
-6 -9 -11 5 -22 34 -24 54 -8 30 23 -9 11 -14 13 -13 5z"/>
<path d="M1483 6315 c0 -8 4 -12 9 -9 5 3 6 10 3 15 -9 13 -12 11 -12 -6z"/>
<path d="M1450 6305 c-7 -9 -8 -15 -2 -15 5 0 12 7 16 15 3 8 4 15 2 15 -2 0
-9 -7 -16 -15z"/>
<path d="M1381 6263 c-16 -17 -11 -25 8 -14 7 5 12 13 10 19 -2 6 -10 4 -18
-5z"/>
<path d="M1436 6268 c3 -4 11 -5 19 -1 21 7 19 12 -4 10 -11 0 -18 -5 -15 -9z"/>
<path d="M3853 6268 c-12 -20 -12 -38 -1 -38 6 0 8 6 5 14 -10 24 5 26 25 3
l19 -22 -17 28 c-19 31 -20 32 -31 15z"/>
<path d="M1326 6223 c-6 -14 -5 -15 5 -6 7 7 10 15 7 18 -3 3 -9 -2 -12 -12z"/>
<path d="M1312 6191 c-11 -7 -11 -9 0 -14 9 -3 15 1 15 9 0 8 -1 14 -1 14 -1
0 -7 -4 -14 -9z"/>
<path d="M1343 6175 c0 -8 4 -12 9 -9 5 3 6 10 3 15 -9 13 -12 11 -12 -6z"/>
<path d="M3905 6179 c-4 -6 -5 -12 -2 -15 2 -3 7 2 10 11 7 17 1 20 -8 4z"/>
<path d="M1170 6131 c0 -6 4 -12 8 -15 5 -3 9 1 9 9 0 8 -4 15 -9 15 -4 0 -8
-4 -8 -9z"/>
<path d="M1111 6111 c-9 -6 -10 -11 -2 -15 6 -4 11 -2 11 5 0 8 4 8 15 -1 13
-11 14 -10 9 4 -7 18 -13 19 -33 7z"/>
<path d="M1159 6107 c6 -8 7 -18 3 -22 -4 -5 -1 -5 6 -1 10 6 10 11 1 22 -6 8
-14 14 -16 14 -3 0 0 -6 6 -13z"/>
<path d="M3926 6107 c3 -10 9 -15 12 -12 3 3 0 11 -7 18 -10 9 -11 8 -5 -6z"/>
<path d="M1014 6053 c6 -11 2 -14 -19 -13 -3 1 -13 -6 -21 -15 -9 -8 -19 -13
-23 -11 -4 3 -8 -1 -8 -8 0 -10 8 -9 30 5 22 12 36 15 48 9 13 -7 17 -6 15 5
-1 8 -8 21 -16 28 -10 9 -11 9 -6 0z"/>
<path d="M4001 6045 c0 -11 6 -29 14 -39 8 -10 12 -23 8 -29 -3 -6 -1 -7 6 -3
9 6 9 13 -2 30 -8 12 -17 31 -20 41 -5 20 -5 20 -6 0z"/>
<path d="M863 5960 c-11 -16 -10 -21 5 -29 12 -6 23 -6 33 0 12 8 12 10 -1 8
-29 -3 -41 1 -35 11 4 6 11 8 16 5 5 -3 6 1 3 9 -8 20 -7 20 -21 -4z"/>
<path d="M4022 5945 c3 -3 16 -8 28 -10 12 -2 20 -1 16 2 -4 4 -16 8 -28 10
-12 2 -19 1 -16 -2z"/>
<path d="M774 5880 c0 -16 3 -27 6 -25 8 5 6 42 -1 50 -3 2 -5 -8 -5 -25z"/>
<path d="M4084 5889 c-3 -6 9 -25 27 -43 l34 -31 -29 32 c-15 17 -25 36 -22
42 4 6 5 11 2 11 -3 0 -8 -5 -12 -11z"/>
<path d="M707 5865 c2 -6 12 -11 23 -11 10 0 17 3 14 7 -2 4 2 9 8 12 7 2 -1
4 -18 3 -17 -1 -30 -6 -27 -11z"/>
<path d="M644 5834 c-18 -14 -18 -15 4 -4 12 6 22 13 22 15 0 8 -5 6 -26 -11z"/>
<path d="M4121 5796 c12 -20 23 -36 25 -36 7 0 -25 58 -36 65 -5 3 -1 -10 11
-29z"/>
<path d="M586 5812 c-7 -11 -2 -40 9 -49 4 -4 5 -2 1 5 -4 6 -3 12 1 12 5 0
15 -6 23 -12 12 -11 12 -10 2 3 -9 12 -9 18 0 27 9 9 9 12 0 12 -7 0 -12 -4
-12 -10 0 -5 -5 -10 -11 -10 -6 0 -9 7 -5 15 6 16 1 21 -8 7z"/>
<path d="M4090 5801 c0 -6 4 -13 10 -16 6 -3 7 1 4 9 -7 18 -14 21 -14 7z"/>
<path d="M4165 5737 c0 -14 4 -29 8 -33 4 -5 5 0 2 11 -7 20 -6 20 9 1 9 -11
18 -17 20 -15 3 3 -5 18 -17 33 l-23 28 1 -25z"/>
<path d="M490 5740 c0 -5 5 -10 11 -10 5 0 7 5 4 10 -3 6 -8 10 -11 10 -2 0
-4 -4 -4 -10z"/>
<path d="M510 5710 c-9 -6 -10 -10 -3 -10 6 0 15 5 18 10 8 12 4 12 -15 0z"/>
<path d="M405 5700 c-3 -6 1 -7 9 -4 18 7 21 14 7 14 -6 0 -13 -4 -16 -10z"/>
<path d="M4170 5675 c0 -5 5 -17 10 -25 5 -8 10 -10 10 -5 0 6 -5 17 -10 25
-5 8 -10 11 -10 5z"/>
<path d="M360 5656 c0 -2 8 -10 18 -17 15 -13 16 -12 3 4 -13 16 -21 21 -21
13z"/>
<path d="M344 5618 c-4 -7 -3 -8 5 -4 6 4 20 2 29 -6 15 -12 16 -11 3 5 -16
20 -27 22 -37 5z"/>
<path d="M4263 5585 c0 -8 4 -12 9 -9 5 3 6 10 3 15 -9 13 -12 11 -12 -6z"/>
<path d="M213 5572 c-9 -5 -6 -12 10 -21 20 -13 21 -13 9 1 -10 13 -10 17 0
21 7 3 9 6 3 6 -5 0 -15 -3 -22 -7z"/>
<path d="M4240 5563 c0 -19 28 -22 42 -5 11 15 11 15 -3 5 -12 -10 -18 -10
-27 -1 -8 8 -12 9 -12 1z"/>
<path d="M145 5540 c27 -12 43 -12 25 0 -8 5 -22 9 -30 9 -10 0 -8 -3 5 -9z"/>
<path d="M89 5520 c-13 -11 -19 -19 -12 -20 6 0 14 6 16 13 4 9 8 9 15 -1 7
-11 10 -11 15 2 10 24 -9 28 -34 6z"/>
<path d="M4340 5429 c0 -5 -5 -7 -11 -3 -8 5 -8 1 0 -14 6 -12 16 -24 21 -27
6 -4 7 -12 3 -18 -4 -7 0 -6 10 2 13 11 17 11 17 1 0 -8 3 -11 6 -7 3 3 1 14
-5 24 -7 12 -10 13 -11 4 0 -11 -3 -11 -15 -1 -9 7 -13 21 -10 31 4 11 4 19 1
19 -3 0 -6 -5 -6 -11z"/>
<path d="M190 5261 c24 -41 27 -43 33 -27 4 9 1 15 -5 13 -6 -1 -13 4 -16 12
-2 8 0 11 6 7 6 -3 13 -3 16 2 2 4 -6 8 -19 8 -18 0 -22 -3 -15 -15z"/>
<path d="M4446 5267 c3 -10 9 -15 12 -12 3 3 0 11 -7 18 -10 9 -11 8 -5 -6z"/>
<path d="M4430 5251 c0 -6 4 -13 10 -16 6 -3 7 1 4 9 -7 18 -14 21 -14 7z"/>
<path d="M232 5176 c7 -8 15 -12 17 -11 5 6 -10 25 -20 25 -5 0 -4 -6 3 -14z"/>
<path d="M4488 5183 c7 -3 16 -2 19 1 4 3 -2 6 -13 5 -11 0 -14 -3 -6 -6z"/>
<path d="M260 5171 c0 -6 4 -13 10 -16 6 -3 7 1 4 9 -7 18 -14 21 -14 7z"/>
<path d="M4500 5161 c0 -6 4 -13 10 -16 6 -3 7 1 4 9 -7 18 -14 21 -14 7z"/>
<path d="M266 5123 c-6 -14 -5 -15 5 -6 7 7 10 15 7 18 -3 3 -9 -2 -12 -12z"/>
<path d="M293 5122 c-9 -15 -7 -21 11 -32 19 -12 20 -11 8 2 -7 9 -10 23 -6
32 8 21 2 20 -13 -2z"/>
<path d="M4530 5123 c0 -6 8 -17 18 -24 16 -13 16 -13 2 6 -8 11 -16 22 -17
24 -2 2 -3 0 -3 -6z"/>
<path d="M327 5022 c3 -7 9 -10 12 -5 3 4 10 11 15 15 4 4 -1 6 -12 5 -12 -1
-18 -6 -15 -15z"/>
<path d="M4570 5033 c0 -6 8 -17 18 -24 16 -13 16 -13 2 6 -8 11 -16 22 -17
24 -2 2 -3 0 -3 -6z"/>
<path d="M366 5011 c-4 -6 -4 -16 0 -22 3 -6 0 -15 -7 -20 -10 -6 -11 -9 -1
-9 6 0 12 -8 12 -17 1 -17 1 -17 11 0 5 9 7 22 4 28 -4 5 -1 17 6 25 6 8 9 17
5 21 -3 3 -6 0 -6 -8 0 -12 -2 -12 -9 0 -6 9 -11 10 -15 2z"/>
<path d="M4605 4990 c-4 -6 -11 -8 -16 -5 -5 3 -6 -1 -3 -10 8 -20 26 -15 30
8 3 19 -2 22 -11 7z"/>
<path d="M451 4844 c0 -11 3 -14 6 -6 3 7 2 16 -1 19 -3 4 -6 -2 -5 -13z"/>
<path d="M4674 4839 c-3 -6 1 -17 10 -25 9 -8 14 -11 11 -8 -3 4 1 14 8 23 11
14 10 15 -7 1 -18 -14 -19 -13 -13 3 7 19 2 23 -9 6z"/>
<path d="M491 4734 c0 -11 3 -14 6 -6 3 7 2 16 -1 19 -3 4 -6 -2 -5 -13z"/>
<path d="M4736 4728 c3 -5 10 -6 15 -3 13 9 11 12 -6 12 -8 0 -12 -4 -9 -9z"/>
<path d="M4760 4716 c0 -2 8 -10 18 -17 15 -13 16 -12 3 4 -13 16 -21 21 -21
13z"/>
<path d="M4725 4699 c-4 -6 -5 -12 -2 -15 2 -3 7 2 10 11 7 17 1 20 -8 4z"/>
<path d="M552 4641 c-11 -7 -11 -9 0 -14 9 -3 15 1 15 9 0 8 -1 14 -1 14 -1 0
-7 -4 -14 -9z"/>
<path d="M4806 4597 c3 -10 9 -15 12 -12 3 3 0 11 -7 18 -10 9 -11 8 -5 -6z"/>
<path d="M615 4589 c-4 -6 -5 -12 -2 -15 2 -3 7 2 10 11 7 17 1 20 -8 4z"/>
<path d="M570 4587 c0 -2 11 -16 25 -31 14 -15 25 -21 25 -14 -1 11 -50 56
-50 45z"/>
<path d="M4891 4447 c2 -1 15 -11 29 -22 l25 -20 -19 23 c-11 12 -24 22 -29
22 -6 0 -8 -1 -6 -3z"/>
<path d="M680 4410 c0 -5 5 -10 10 -10 6 0 10 5 10 10 0 6 -4 10 -10 10 -5 0
-10 -4 -10 -10z"/>
<path d="M4890 4416 c0 -2 7 -7 16 -10 8 -3 12 -2 9 4 -6 10 -25 14 -25 6z"/>
<path d="M4973 4350 c2 -8 0 -25 -4 -38 -6 -15 -5 -21 1 -17 14 9 12 -8 -2
-25 -7 -8 -3 -6 10 4 22 19 32 10 12 -10 -7 -7 -6 -11 5 -11 8 0 13 2 10 5 -2
3 0 14 6 25 8 14 8 18 0 13 -6 -4 -11 -2 -11 4 0 6 -5 8 -12 4 -7 -5 -9 -1 -6
13 3 12 1 27 -4 34 -8 11 -9 11 -5 -1z"/>
<path d="M760 4310 c0 -6 -6 -8 -12 -4 -7 4 -10 4 -6 0 3 -4 10 -8 15 -8 4 0
14 -4 21 -10 17 -15 15 0 -3 18 -9 9 -15 11 -15 4z"/>
<path d="M760 4277 c0 -2 6 -10 14 -16 11 -9 16 -9 22 1 4 7 4 10 -1 6 -4 -4
-14 -3 -22 3 -7 6 -13 9 -13 6z"/>
<path d="M5020 4266 c0 -2 7 -9 15 -16 13 -11 14 -10 9 4 -5 14 -24 23 -24 12z"/>
<path d="M830 4231 c0 -6 4 -13 10 -16 6 -3 7 1 4 9 -7 18 -14 21 -14 7z"/>
<path d="M5041 4167 c-13 -21 -12 -21 5 -5 10 10 16 20 13 22 -3 3 -11 -5 -18
-17z"/>
<path d="M839 4143 c-13 -16 -12 -17 4 -4 9 7 17 15 17 17 0 8 -8 3 -21 -13z"/>
<path d="M5085 4149 c-4 -6 -5 -12 -2 -15 2 -3 7 2 10 11 7 17 1 20 -8 4z"/>
<path d="M5045 4140 c-3 -5 -3 -14 0 -20 3 -5 0 -10 -7 -10 -15 -1 -57 -30
-42 -30 5 0 24 9 43 21 24 15 31 23 22 29 -11 6 -11 9 0 13 9 3 10 6 2 6 -6 1
-15 -3 -18 -9z"/>
<path d="M879 4071 c6 -10 7 -22 3 -26 -4 -5 -1 -5 6 -1 9 5 9 12 2 27 -6 10
-13 19 -16 19 -2 0 0 -8 5 -19z"/>
<path d="M4939 4053 l-24 -28 26 23 c14 12 29 19 34 15 4 -5 5 -2 1 5 -9 16
-9 16 -37 -15z"/>
<path d="M930 4061 c0 -6 4 -13 10 -16 6 -3 7 1 4 9 -7 18 -14 21 -14 7z"/>
<path d="M923 4018 c3 -9 1 -19 -6 -22 -9 -3 -9 -5 0 -5 18 -1 23 13 11 29 -8
12 -9 12 -5 -2z"/>
<path d="M990 3911 c0 -7 -4 -9 -10 -6 -6 4 -7 -1 -3 -11 6 -15 7 -15 15 1 6
9 7 19 4 22 -3 4 -6 1 -6 -6z"/>
<path d="M1017 3907 c-3 -8 1 -14 8 -14 7 0 11 6 8 14 -3 7 -6 13 -8 13 -2 0
-5 -6 -8 -13z"/>
<path d="M1006 3862 c-3 -5 1 -17 8 -27 12 -17 13 -17 11 3 -2 26 -11 37 -19
24z"/>
<path d="M1090 3745 c15 -18 0 -20 -20 -2 -8 6 -4 0 9 -15 28 -32 33 -34 24
-11 -5 12 -3 14 8 8 8 -5 5 1 -5 13 -21 25 -36 31 -16 7z"/>
<path d="M1110 3670 c-9 -6 -10 -10 -3 -10 6 0 15 5 18 10 8 12 4 12 -15 0z"/>
<path d="M1126 3643 c-6 -14 -5 -15 5 -6 7 7 10 15 7 18 -3 3 -9 -2 -12 -12z"/>
<path d="M1149 3623 c-3 -18 -3 -30 0 -28 3 3 11 -5 17 -17 l13 -23 -2 23 c-1
12 -4 22 -8 22 -4 0 -9 12 -11 28 -3 26 -4 26 -9 -5z"/>
<path d="M1193 3507 c-3 -6 -1 -7 5 -3 7 4 12 3 12 -1 0 -5 7 -18 16 -29 14
-18 15 -18 4 4 -6 12 -9 26 -6 31 3 4 -2 8 -10 8 -8 0 -18 -5 -21 -10z"/>
<path d="M3948 3512 c11 -7 10 -11 -5 -17 -10 -5 -21 -8 -25 -7 -4 1 -5 -5 -2
-13 7 -17 25 -20 22 -4 -2 6 3 14 11 17 9 3 11 0 6 -8 -5 -7 6 -5 24 6 34 20
39 31 17 31 -8 0 -14 -5 -13 -10 1 -5 -4 -12 -11 -14 -7 -3 -11 1 -10 7 2 7
-4 15 -12 17 -12 4 -12 3 -2 -5z"/>
<path d="M1254 3461 c4 -6 2 -19 -6 -28 -11 -14 -11 -16 1 -9 10 6 12 4 7 -11
-4 -13 0 -25 11 -34 15 -11 16 -11 6 1 -16 17 -17 34 -2 24 8 -4 8 -1 1 12 -5
11 -7 24 -5 31 2 6 -1 15 -8 19 -8 4 -9 3 -5 -5z"/>
<path d="M3850 3446 c0 -2 8 -10 18 -17 15 -13 16 -12 3 4 -13 16 -21 21 -21
13z"/>
<path d="M3770 3430 c9 -6 9 -9 -1 -14 -8 -3 -3 -3 11 0 38 9 42 19 9 20 -17
1 -25 -2 -19 -6z"/>
<path d="M3817 3416 c-10 -8 -14 -16 -10 -19 5 -3 14 3 21 14 14 22 13 23 -11
5z"/>
<path d="M1288 3353 c6 -2 9 -10 6 -15 -4 -7 -2 -8 5 -4 13 9 5 26 -12 25 -9
0 -8 -2 1 -6z"/>
<path d="M1310 3314 c0 -6 7 -17 15 -24 8 -7 12 -17 8 -24 -4 -6 1 -5 9 2 9 8
14 20 11 29 -4 11 -8 12 -13 3 -6 -9 -11 -7 -19 6 -6 11 -11 14 -11 8z"/>
<path d="M3639 3299 l-24 -20 30 17 c39 24 40 24 28 24 -6 0 -21 -9 -34 -21z"/>
<path d="M3588 3273 c7 -3 16 -2 19 1 4 3 -2 6 -13 5 -11 0 -14 -3 -6 -6z"/>
<path d="M3508 3243 c7 -3 16 -2 19 1 4 3 -2 6 -13 5 -11 0 -14 -3 -6 -6z"/>
<path d="M3484 3208 l-19 -23 25 20 c14 11 27 21 29 22 2 2 0 3 -6 3 -5 0 -18
-10 -29 -22z"/>
<path d="M3415 3190 c3 -5 1 -10 -5 -10 -6 0 -8 -5 -4 -11 5 -8 10 -6 16 5 5
9 14 16 19 16 6 0 7 -5 3 -12 -4 -7 -3 -8 5 -4 16 10 4 26 -20 26 -11 0 -17
-4 -14 -10z"/>
<path d="M3363 3143 c0 -8 6 -9 19 -2 10 5 18 11 18 12 0 2 -8 3 -18 3 -10 0
-19 -6 -19 -13z"/>
<path d="M3234 3109 c-2 -5 -12 -6 -22 -3 -15 5 -15 4 1 -6 9 -6 14 -17 11
-23 -4 -7 -3 -8 2 -4 5 5 9 14 9 20 0 5 5 12 12 14 13 5 12 -14 -2 -37 -9 -16
-11 -17 47 27 l27 20 -40 0 c-22 0 -42 -4 -45 -8z m51 -9 c-3 -5 -11 -10 -16
-10 -6 0 -7 5 -4 10 3 6 11 10 16 10 6 0 7 -4 4 -10z"/>
<path d="M3197 3059 c7 -7 15 -10 18 -7 3 3 -2 9 -12 12 -14 6 -15 5 -6 -5z"/>
<path d="M3135 3030 c-4 -6 -12 -7 -18 -3 -7 4 -7 1 1 -9 8 -9 20 -14 29 -11
12 5 12 8 1 15 -9 7 -7 8 10 5 12 -3 22 -1 22 4 0 12 -37 11 -45 -1z"/>
<path d="M3045 2971 c-6 -11 9 -23 19 -14 9 9 7 23 -3 23 -6 0 -12 -4 -16 -9z"/>
<path d="M2940 2950 c-9 -6 -10 -10 -3 -10 6 0 15 5 18 10 8 12 4 12 -15 0z"/>
<path d="M2963 2931 c1 -5 -7 -17 -18 -25 -11 -8 -15 -16 -9 -16 6 0 17 7 24
15 7 8 17 12 24 8 6 -4 5 1 -3 10 -15 19 -22 22 -18 8z"/>
<path d="M2906 2885 c4 -8 8 -15 10 -15 2 0 4 7 4 15 0 8 -4 15 -10 15 -5 0
-7 -7 -4 -15z"/>
<path d="M2876 2871 c-4 -5 -2 -12 3 -15 5 -4 12 -2 15 3 4 5 2 12 -3 15 -5 4
-12 2 -15 -3z"/>
<path d="M2808 2853 c7 -3 16 -2 19 1 4 3 -2 6 -13 5 -11 0 -14 -3 -6 -6z"/>
<path d="M2845 2839 c-4 -6 -13 -8 -19 -6 -7 3 -13 -1 -13 -8 0 -10 5 -11 18
-4 18 9 35 29 25 29 -3 0 -8 -5 -11 -11z"/>
<path d="M2734 2789 c-8 -14 13 -18 30 -6 16 12 16 13 -4 13 -12 0 -23 -4 -26
-7z"/>
<path d="M7515 2780 c-330 -61 -424 -91 -523 -168 -55 -44 -64 -60 -51 -105
18 -65 47 -66 118 -4 83 72 353 146 586 161 39 3 99 9 135 15 95 15 308 13
440 -4 63 -9 167 -22 230 -30 63 -8 124 -17 135 -20 27 -6 47 8 39 28 -8 22
-88 50 -258 93 -182 45 -273 54 -536 53 -164 0 -239 -5 -315 -19z"/>
<path d="M2714 2772 c3 -5 0 -13 -6 -15 -9 -4 -10 -6 -1 -6 17 -1 25 16 12 25
-7 4 -9 3 -5 -4z"/>
<path d="M2526 2701 c-4 -5 2 -15 13 -20 16 -9 19 -8 17 6 -3 20 -21 28 -30
14z"/>
<path d="M2595 2700 c-4 -6 -11 -7 -17 -4 -7 4 -8 2 -4 -5 6 -9 12 -9 24 1 10
7 19 14 21 15 2 2 -1 3 -7 3 -6 0 -14 -5 -17 -10z"/>
<path d="M12855 2668 c-59 -32 -136 -156 -165 -262 -23 -87 -21 -109 12 -104
15 2 32 23 57 73 43 85 102 167 136 189 37 24 43 62 14 92 -26 27 -27 27 -54
12z"/>
<path d="M10686 2658 c-115 -66 -247 -462 -282 -843 -8 -87 -9 -86 -35 45 -28
141 -109 262 -194 290 -49 16 -101 7 -199 -36 -128 -55 -155 -92 -187 -257
-11 -56 -32 -140 -47 -187 -62 -197 -14 -353 125 -406 52 -20 150 -15 228 11
57 19 166 103 218 167 34 43 76 126 78 157 1 9 7 -17 15 -57 26 -145 104 -234
202 -234 42 1 69 10 150 53 61 32 106 63 120 83 18 25 22 27 22 11 0 -31 44
-118 71 -140 74 -62 132 -75 248 -55 54 9 86 21 129 51 89 59 161 136 196 209
29 61 31 72 30 170 -2 117 -25 223 -69 313 -37 75 -72 113 -129 138 -59 26
-110 22 -187 -16 -29 -14 -58 -25 -64 -25 -7 0 -30 -13 -52 -29 -49 -36 -80
-104 -100 -221 -8 -47 -28 -125 -44 -175 -16 -49 -29 -110 -29 -136 l0 -47
-29 11 c-25 9 -38 6 -103 -26 -61 -31 -85 -37 -136 -37 -73 0 -91 14 -123 99
-19 51 -21 69 -15 196 6 152 29 275 91 494 44 151 84 236 142 301 50 56 57 99
21 124 -26 19 -36 19 -62 4z m-504 -619 c29 -12 65 -65 84 -118 18 -53 37
-216 31 -268 -11 -97 -88 -187 -213 -248 -126 -62 -218 -41 -244 57 -29 105
54 318 148 381 50 33 90 39 154 22 49 -13 54 -12 72 5 27 27 10 62 -51 101
-45 29 -52 30 -121 26 -78 -6 -84 1 -24 33 41 21 127 26 164 9z m1205 -15 c63
-70 83 -130 90 -276 5 -96 3 -125 -11 -162 -37 -97 -214 -216 -321 -216 -61 0
-85 15 -110 70 -16 36 -17 50 -8 121 19 146 125 307 204 310 19 1 43 3 54 3
11 1 35 -4 53 -11 42 -16 72 -3 72 32 0 16 -15 36 -47 62 -45 37 -48 38 -125
38 -43 -1 -78 2 -78 6 0 4 19 17 43 29 55 28 157 25 184 -6z"/>
<path d="M16548 2655 c-52 -13 -264 -110 -333 -152 -166 -102 -338 -235 -410
-317 -53 -60 -106 -150 -146 -244 -26 -63 -33 -94 -37 -173 -13 -270 86 -425
294 -459 136 -23 463 20 528 68 26 20 100 33 150 27 l52 -7 39 49 c21 26 63
74 93 106 l54 58 -6 53 c-6 42 -2 68 19 130 54 169 17 266 -103 266 -26 0 -90
-9 -142 -21 -52 -11 -135 -27 -185 -35 -147 -23 -225 -46 -257 -76 -73 -68 18
-168 114 -125 94 43 133 57 203 72 87 20 178 16 202 -7 14 -14 13 -21 -2 -73
-22 -77 -87 -216 -111 -237 -46 -40 -233 -109 -344 -127 -78 -13 -221 -14
-272 -2 -55 13 -120 62 -148 111 -23 41 -25 56 -25 165 0 156 21 228 103 345
98 140 306 314 467 389 90 42 236 91 274 91 25 0 59 -14 110 -44 77 -46 91
-47 121 -11 16 19 8 76 -17 110 -45 64 -178 97 -285 70z"/>
<path d="M20640 2658 c-31 -12 -40 -25 -40 -65 0 -36 32 -72 92 -103 70 -37
148 -36 148 2 0 12 -138 156 -160 168 -8 4 -26 3 -40 -2z"/>
<path d="M2415 2630 c3 -5 -1 -10 -10 -10 -11 0 -15 -5 -11 -15 3 -8 1 -15 -3
-15 -5 0 -12 -7 -15 -15 -4 -13 -1 -12 18 2 13 10 19 21 14 24 -5 3 -3 9 6 12
18 7 22 27 5 27 -5 0 -7 -4 -4 -10z"/>
<path d="M2450 2615 c-14 -8 -20 -14 -14 -15 5 0 19 7 30 15 24 18 16 19 -16
0z"/>
<path d="M2340 2565 c-7 -9 -15 -13 -18 -10 -3 3 -16 -2 -30 -11 -20 -13 -26
-13 -41 -2 -9 7 -6 3 7 -9 13 -13 28 -23 35 -23 8 0 8 3 -2 9 -9 6 -10 11 -2
15 6 4 15 5 20 1 5 -3 12 -1 16 5 4 6 12 7 18 4 7 -4 9 -4 5 1 -4 4 -3 14 3
22 6 7 9 13 6 13 -2 0 -10 -7 -17 -15z"/>
<path d="M7368 2479 c-50 -54 -76 -97 -158 -264 -91 -184 -143 -315 -257 -655
-47 -139 -41 -228 16 -243 29 -7 45 18 60 93 38 193 325 839 421 945 62 69 74
112 42 151 -37 47 -59 42 -124 -27z"/>
<path d="M18329 2130 c-69 -8 -197 -41 -252 -64 -18 -7 -36 -14 -42 -16 -14
-4 -92 -48 -135 -75 -19 -13 -70 -55 -113 -94 -73 -67 -107 -84 -99 -50 2 8 5
39 7 70 4 49 1 59 -20 79 -30 28 -56 23 -74 -15 -8 -16 -27 -108 -43 -205 -15
-96 -30 -190 -34 -208 -4 -29 -13 -37 -58 -57 -146 -65 -289 -97 -380 -85 -59
8 -100 63 -100 133 0 61 29 160 53 181 10 9 47 18 92 22 83 8 111 19 186 76
87 66 113 131 78 197 -16 31 -69 61 -108 61 -38 0 -159 -68 -226 -127 -85 -76
-136 -172 -160 -307 -26 -143 -5 -229 72 -290 36 -29 46 -31 132 -34 110 -4
166 9 304 74 51 24 95 44 97 44 2 0 4 -15 4 -34 0 -51 16 -85 44 -92 36 -9 64
11 74 54 5 20 19 76 31 125 22 94 58 173 126 278 62 97 215 198 365 243 96 29
310 66 382 66 54 0 70 3 75 16 12 31 -24 44 -121 43 -50 -1 -121 -5 -157 -9z
m-1054 -180 c11 -19 -64 -81 -93 -78 -67 8 -8 72 80 87 4 0 10 -4 13 -9z"/>
<path d="M7870 2047 c-63 -31 -141 -87 -188 -135 -68 -70 -126 -257 -120 -387
3 -89 20 -123 85 -173 33 -24 46 -27 129 -30 76 -3 106 0 161 18 53 18 182 74
244 106 4 2 19 -14 33 -37 15 -22 48 -53 73 -70 41 -25 56 -29 119 -29 59 0
93 7 184 40 114 41 262 112 336 162 55 37 64 36 57 -6 -8 -49 30 -86 87 -86
37 0 46 6 118 78 42 43 126 131 186 196 59 64 113 115 120 113 8 -3 11 -59 11
-188 0 -152 3 -194 19 -241 22 -68 79 -130 135 -147 76 -22 97 19 34 66 -73
54 -91 95 -92 205 -1 43 8 124 19 180 25 127 27 274 4 306 -35 50 -64 32 -279
-175 -211 -203 -225 -206 -175 -42 53 174 60 202 60 240 0 36 -23 69 -49 69
-22 0 -59 -31 -70 -58 -16 -41 -101 -341 -101 -357 0 -31 -64 -69 -283 -169
-104 -48 -250 -89 -310 -89 -125 2 -155 151 -66 327 88 173 293 283 377 203
33 -32 53 -34 76 -8 29 32 -1 109 -55 137 -55 28 -170 11 -259 -39 -86 -47
-210 -179 -253 -268 -36 -73 -57 -151 -57 -213 0 -29 -5 -34 -62 -59 -140 -60
-276 -89 -364 -77 -74 11 -115 85 -99 182 9 49 41 130 57 139 6 4 43 10 82 14
63 6 158 41 176 64 3 4 18 17 34 29 48 37 76 82 76 124 0 31 -7 45 -40 78 -50
50 -81 51 -170 7z m70 -98 c0 -33 -55 -79 -95 -79 -26 0 -29 29 -6 52 33 30
101 49 101 27z"/>
<path d="M13004 2047 c-84 -44 -134 -87 -190 -160 -106 -141 -171 -337 -154
-467 6 -45 13 -59 41 -82 74 -62 145 -31 308 137 64 67 108 105 119 103 10 -2
26 -30 43 -74 55 -149 111 -201 245 -226 103 -19 239 14 239 57 0 19 -7 20
-125 20 -140 0 -170 10 -213 67 -43 59 -52 96 -52 213 l0 110 59 100 c33 54
59 108 59 118 -1 11 -10 28 -20 39 -14 16 -25 18 -53 13 -56 -11 -67 -8 -110
26 -58 47 -115 48 -196 6z m164 -118 c28 -41 25 -77 -13 -155 -49 -100 -318
-349 -369 -342 -19 3 -21 10 -21 63 1 154 106 343 240 435 83 56 124 56 163
-1z"/>
<path d="M14922 2063 c-13 -12 -23 -40 -30 -86 -15 -94 -36 -133 -157 -285
-84 -106 -119 -141 -173 -176 -151 -98 -180 -102 -208 -30 -34 90 9 273 96
402 54 80 55 104 6 132 -23 13 -29 13 -53 0 -101 -56 -202 -350 -175 -508 14
-82 52 -146 110 -184 39 -25 55 -29 94 -25 38 3 61 15 130 67 45 35 108 87
138 117 91 88 101 68 44 -92 -50 -139 -101 -294 -183 -550 -133 -420 -174
-642 -120 -653 11 -2 25 33 53 135 83 296 259 808 394 1148 33 83 72 191 86
240 31 111 50 158 86 212 28 41 28 42 11 75 -21 39 -74 78 -106 78 -13 0 -32
-8 -43 -17z"/>
<path d="M18550 2049 c-94 -47 -184 -121 -224 -187 -58 -97 -80 -181 -81 -308
0 -105 1 -113 28 -151 42 -61 96 -83 201 -83 99 0 154 16 298 84 85 41 95 44
115 30 12 -7 39 -14 60 -14 34 0 46 8 138 103 55 57 139 146 186 198 64 69 90
91 98 83 8 -7 12 -75 14 -205 2 -186 3 -196 28 -250 39 -83 131 -145 178 -120
27 15 16 43 -28 73 -71 48 -76 63 -75 226 0 83 5 164 12 187 16 54 26 184 18
228 -12 66 -55 85 -104 46 -15 -11 -94 -84 -176 -162 -139 -133 -191 -177
-208 -177 -16 0 -7 46 33 174 47 152 54 220 25 242 -27 19 -41 18 -71 -8 -20
-19 -37 -61 -81 -213 -30 -104 -59 -222 -65 -261 l-11 -70 -61 -26 c-197 -83
-380 -106 -423 -52 -25 32 -44 81 -44 117 0 37 37 156 54 174 6 7 47 15 91 19
97 8 146 33 228 115 45 46 57 65 57 90 0 70 -56 129 -122 129 -13 0 -52 -14
-88 -31z m70 -102 c0 -28 -59 -77 -93 -77 -26 0 -32 28 -12 51 28 30 105 50
105 26z"/>
<path d="M19998 2066 c-161 -46 -334 -227 -383 -401 -40 -140 -12 -257 77
-320 38 -26 53 -30 124 -33 59 -3 90 1 120 13 21 9 61 24 88 32 72 22 210 87
292 138 40 25 74 45 77 45 2 0 6 -42 9 -94 4 -100 20 -136 58 -136 32 0 43 28
45 118 2 88 17 134 128 393 13 28 13 40 4 59 -17 35 -59 48 -89 28 -27 -18
-75 -111 -108 -211 l-23 -68 -143 -70 c-79 -39 -147 -70 -151 -70 -4 -1 -13
-5 -20 -10 -31 -26 -254 -80 -295 -72 -16 3 -42 21 -59 41 -31 35 -31 37 -27
118 4 70 10 94 41 157 62 126 176 224 280 240 45 7 94 -8 108 -34 5 -10 20
-19 32 -19 58 0 65 71 13 127 -30 33 -39 37 -92 39 -32 2 -80 -3 -106 -10z"/>
<path d="M21045 2057 c-201 -87 -365 -356 -365 -599 0 -79 1 -81 36 -114 29
-28 43 -34 79 -34 59 0 105 32 233 165 65 67 109 105 120 103 9 -2 24 -24 34
-53 10 -28 28 -72 40 -98 54 -118 217 -181 369 -143 71 19 95 36 85 62 -6 15
-17 16 -92 10 -159 -13 -219 11 -266 104 -25 49 -28 67 -30 166 -2 121 -5 110
80 260 42 73 43 76 27 100 -21 33 -40 39 -81 26 -29 -9 -39 -7 -69 14 -90 61
-120 65 -200 31z m139 -118 c59 -66 14 -169 -138 -323 -155 -156 -218 -200
-255 -177 -11 7 -13 23 -8 68 19 183 147 382 288 447 58 28 78 25 113 -15z"/>
<path d="M12058 2042 c-126 -73 -175 -114 -259 -217 -216 -263 -229 -515 -27
-515 59 0 106 32 248 166 123 117 143 125 148 57 11 -146 -119 -818 -233
-1212 -19 -68 -33 -126 -31 -128 29 -29 92 95 175 342 118 351 208 833 242
1297 11 142 10 172 -2 194 -18 35 -54 48 -93 34 -20 -7 -33 -7 -40 0 -18 18
-80 10 -128 -18z m87 -106 c12 -9 20 -30 23 -68 4 -50 1 -60 -39 -127 -70
-118 -247 -294 -317 -316 -37 -11 -68 2 -82 34 -17 42 16 137 82 238 61 94
123 158 207 212 68 43 96 50 126 27z"/>
<path d="M12521 1903 c-29 -20 -83 -134 -113 -239 -30 -109 -33 -301 -4 -333
11 -12 27 -21 36 -21 33 0 44 28 42 100 -4 76 16 144 94 327 50 116 52 135 24
163 -24 24 -48 25 -79 3z"/>
</g>
</svg>
